<svg xmlns="http://www.w3.org/2000/svg" xmlns:xlink="http://www.w3.org/1999/xlink" contentStyleType="text/css" data-diagram-type="CLASS" height="374px" preserveAspectRatio="none" style="width:221px;height:374px;background:#FFFFFF;" version="1.1" viewBox="0 0 221 374" width="221px" zoomAndPan="magnify"><?plantuml 1.2026.3beta4?><defs/><g><!--class Worker--><g class="entity" data-qualified-name="Worker" data-source-line="1" id="ent0002"><rect fill="#F1F1F1" height="129.4844" rx="2.5" ry="2.5" style="stroke:#181818;stroke-width:0.5;" width="124.1436" x="44.43" y="7"/><ellipse cx="78.1063" cy="23" fill="#ADD1B2" rx="11" ry="11" style="stroke:#181818;stroke-width:1;"/><path d="M81.0751,28.6406 Q80.4969,28.9375 79.8563,29.0781 Q79.2157,29.2344 78.5126,29.2344 Q76.0126,29.2344 74.6844,27.5938 Q73.3719,25.9375 73.3719,22.8125 Q73.3719,19.6875 74.6844,18.0313 Q76.0126,16.375 78.5126,16.375 Q79.2157,16.375 79.8563,16.5313 Q80.5126,16.6875 81.0751,16.9844 L81.0751,19.7031 Q80.4501,19.125 79.8563,18.8594 Q79.2626,18.5781 78.6376,18.5781 Q77.2938,18.5781 76.6063,19.6563 Q75.9188,20.7188 75.9188,22.8125 Q75.9188,24.9063 76.6063,25.9844 Q77.2938,27.0469 78.6376,27.0469 Q79.2626,27.0469 79.8563,26.7813 Q80.4501,26.5 81.0751,25.9219 L81.0751,28.6406 Z " fill="#000000"/><text fill="#000000" font-family="sans-serif" font-size="14" lengthAdjust="spacing" textLength="50.6406" x="96.2566" y="27.8467">Worker</text><line style="stroke:#181818;stroke-width:0.5;" x1="45.43" x2="167.5736" y1="39" y2="39"/><text fill="#000000" font-family="sans-serif" font-size="14" lengthAdjust="spacing" textLength="60.5186" x="50.43" y="55.9951">id : Long</text><text fill="#000000" font-family="sans-serif" font-size="14" lengthAdjust="spacing" textLength="95.1016" x="50.43" y="72.292">name : String</text><text fill="#000000" font-family="sans-serif" font-size="14" lengthAdjust="spacing" textLength="99.21" x="50.43" y="88.5889">phone : String</text><text fill="#000000" font-family="sans-serif" font-size="14" lengthAdjust="spacing" textLength="76.1592" x="50.43" y="104.8857">shift : Shift</text><text fill="#000000" font-family="sans-serif" font-size="14" lengthAdjust="spacing" textLength="112.1436" x="50.43" y="121.1826">active : boolean</text><line style="stroke:#181818;stroke-width:0.5;" x1="45.43" x2="167.5736" y1="128.4844" y2="128.4844"/></g><!--class WorkOrder--><g class="entity" data-qualified-name="WorkOrder" data-source-line="9" id="ent0003"><rect fill="#F1F1F1" height="145.7813" rx="2.5" ry="2.5" style="stroke:#181818;stroke-width:0.5;" width="199.0039" x="7" y="213.49"/><ellipse cx="64.1006" cy="229.49" fill="#ADD1B2" rx="11" ry="11" style="stroke:#181818;stroke-width:1;"/><path d="M67.0693,235.1306 Q66.4912,235.4275 65.8506,235.5681 Q65.21,235.7244 64.5068,235.7244 Q62.0068,235.7244 60.6787,234.0837 Q59.3662,232.4275 59.3662,229.3025 Q59.3662,226.1775 60.6787,224.5212 Q62.0068,222.865 64.5068,222.865 Q65.21,222.865 65.8506,223.0212 Q66.5068,223.1775 67.0693,223.4744 L67.0693,226.1931 Q66.4443,225.615 65.8506,225.3494 Q65.2568,225.0681 64.6318,225.0681 Q63.2881,225.0681 62.6006,226.1462 Q61.9131,227.2087 61.9131,229.3025 Q61.9131,231.3962 62.6006,232.4744 Q63.2881,233.5369 64.6318,233.5369 Q65.2568,233.5369 65.8506,233.2712 Q66.4443,232.99 67.0693,232.4119 L67.0693,235.1306 Z " fill="#000000"/><text fill="#000000" font-family="sans-serif" font-size="14" lengthAdjust="spacing" textLength="76.3027" x="84.6006" y="234.3367">WorkOrder</text><line style="stroke:#181818;stroke-width:0.5;" x1="8" x2="205.0039" y1="245.49" y2="245.49"/><text fill="#000000" font-family="sans-serif" font-size="14" lengthAdjust="spacing" textLength="60.5186" x="13" y="262.4851">id : Long</text><text fill="#000000" font-family="sans-serif" font-size="14" lengthAdjust="spacing" textLength="133.2393" x="13" y="278.782">description : String</text><text fill="#000000" font-family="sans-serif" font-size="14" lengthAdjust="spacing" textLength="110.9473" x="13" y="295.0789">location : String</text><text fill="#000000" font-family="sans-serif" font-size="14" lengthAdjust="spacing" textLength="114.208" x="13" y="311.3757">priority : Priority</text><text fill="#000000" font-family="sans-serif" font-size="14" lengthAdjust="spacing" textLength="101.2471" x="13" y="327.6726">status : Status</text><text fill="#000000" font-family="sans-serif" font-size="14" lengthAdjust="spacing" textLength="187.0039" x="13" y="343.9695">createdAt : LocalDateTime</text><line style="stroke:#181818;stroke-width:0.5;" x1="8" x2="205.0039" y1="351.2713" y2="351.2713"/></g><!--link Worker to WorkOrder--><g class="link" data-entity-1="ent0002" data-entity-2="ent0003" data-link-type="association" data-source-line="18" id="lnk4"><path codeLine="18" d="M106.5,136.83 C106.5,160.92 106.5,188.46 106.5,213.24" fill="none" id="Worker-WorkOrder" style="stroke:#181818;stroke-width:1;"/><text fill="#000000" font-family="sans-serif" font-size="13" lengthAdjust="spacing" textLength="57.8652" x="107.5" y="179.5569">assigned</text><text fill="#000000" font-family="sans-serif" font-size="13" lengthAdjust="spacing" textLength="8.271" x="98.1013" y="156.3894">1</text><text fill="#000000" font-family="sans-serif" font-size="13" lengthAdjust="spacing" textLength="23.0356" x="82.3695" y="202.3754">0..*</text></g><?plantuml-src POz12y8m38Nl_HLXHs53hxi97WK51S-rZIxODIEDWeZ_tNOC6NfAlYIyz-A2JGbEB3SKU1aW3oriELuDHDjZXeCA5HmwZdDE7LsqSAa6h5DwbFsPEQ2DvcsC-uhlnF_fUqnEQ53YE9CDxEpFQ11Y8NtcqNvgixrQlQVngZG6dA1Lz6iT3PmDcun7wh4acHwiLXNKDLJBfbbKis0jvA1qZUW_?></g></svg>